# xmcd
#
# Track frame offsets: 
#        182
#        15140
#        32555
#        44990
#        64420
#        80850
#        95530
#        114140
#        125670
#        140602
#        154255
#        169905
#        184612
#        200762
#        217477
#        236242
#
# Disc length: 3342 seconds
#
# Revision: 0
# Processed by: cddbd v1.5.2PL0 Copyright (c) Steve Scherf et al.
# Submitted via: ExactAudioCopy v0.99pb4
#
DISCID=f40d0c10
DTITLE=Various Artist - Lovin' You
DYEAR=1995
DGENRE=Corporate Country
TTITLE0=Ricky Skaggs - Don't Cheat In Our Hometown
TTITLE1=Tracy Lawrence - Today's Lonely Fool
TTITLE2=Tanya Tucker - Strong Enough to Bend
TTITLE3=Restless Heart - I'll Still Be Loving You
TTITLE4=Exile - She's Too Good to Be True
TTITLE5=The Forester Sisters - I Fell In Love Again Last Night
TTITLE6=Don Williams - I Believe In You
TTITLE7=Patty Loveless - Timber, I'm Falling In Love
TTITLE8=Rosanne Cash - Seven Year Ache
TTITLE9=Randy Travis - 1982
TTITLE10=The Judds - Why Not Me
TTITLE11=Skip Ewing - Burnin' a Hole In My Heart
TTITLE12=Emmylou Harris - (Lost His Love) On Our Last Date
TTITLE13=Shawn Camp - Fallin' Never Felt So Good
TTITLE14=Deborah Allen - Rock Me (In the Cradle of Love)
TTITLE15=Alabama - Old Flame
EXTD=
EXTT0=
EXTT1=
EXTT2=
EXTT3=
EXTT4=
EXTT5=
EXTT6=
EXTT7=
EXTT8=
EXTT9=
EXTT10=
EXTT11=
EXTT12=
EXTT13=
EXTT14=
EXTT15=
PLAYORDER=
